<svg width="99" height="18" viewBox="0 0 99 18" fill="none" xmlns="http://www.w3.org/2000/svg">
<path d="M16.999 13.7763L16.8362 17.1818C16.8138 17.6453 16.425 18.0089 15.958 17.9998C12.0575 17.9261 8.64746 16.4284 6.8066 14.0096L7.02234 16.2526C7.06508 16.7 6.75369 17.104 6.30798 17.1808L2.46345 17.8372C1.96788 17.9221 1.50385 17.5706 1.455 17.0727L0.00389057 2.03771C-0.0357962 1.62161 0.231834 1.23682 0.63786 1.12775L4.46509 0.0935684C4.98407 -0.0468135 5.50407 0.311715 5.55393 0.842945L6.09428 6.59961C7.46907 3.65361 10.6623 1.13482 14.7704 0.0299423C15.2334 -0.0942805 15.7107 0.179414 15.8328 0.639947L16.8311 4.38582C16.9552 4.85039 16.6703 5.32507 16.2001 5.43919C12.5276 6.32491 10.5524 8.79724 10.874 10.3061C11.1548 11.6241 13.3162 12.8097 16.1594 12.8794C16.6438 12.8895 17.0224 13.2965 16.999 13.7763Z" fill="#FF5219"/>
<path d="M25 16.9999V1H29.2508V8.90412H30.626L33.5016 4.43332H38.0024L34.2517 10.3541L38.3775 16.9999H33.7516L30.8761 12.4083H29.2508V16.9999H25Z" fill="#141414"/>
<path d="M40.345 15.0424C38.9448 13.7374 38.2446 12.1747 38.2446 10.3541C38.2446 8.53357 38.9448 6.9708 40.345 5.66581C41.7453 4.36082 43.4623 3.70832 45.496 3.70832C47.5297 3.70832 49.2467 4.36082 50.6469 5.66581C52.0472 6.9708 52.7473 8.53357 52.7473 10.3541C52.7473 12.1747 52.0472 13.7374 50.6469 15.0424C49.2467 16.3474 47.5297 16.9999 45.496 16.9999C43.4623 16.9999 41.7453 16.3474 40.345 15.0424ZM43.4206 8.08246C42.8872 8.64634 42.6204 9.40356 42.6204 10.3541C42.6204 11.3047 42.8872 12.0699 43.4206 12.6499C43.9707 13.2138 44.6625 13.4958 45.496 13.4958C46.3295 13.4958 47.0129 13.2138 47.5464 12.6499C48.0965 12.0699 48.3715 11.3047 48.3715 10.3541C48.3715 9.40356 48.0965 8.64634 47.5464 8.08246C47.0129 7.50246 46.3295 7.21247 45.496 7.21247C44.6625 7.21247 43.9707 7.50246 43.4206 8.08246Z" fill="#141414"/>
<path d="M56.095 15.0424C54.6947 13.7374 53.9946 12.1747 53.9946 10.3541C53.9946 8.53357 54.6947 6.9708 56.095 5.66581C57.4953 4.36082 59.2122 3.70832 61.246 3.70832C63.2797 3.70832 64.9967 4.36082 66.3969 5.66581C67.7972 6.9708 68.4973 8.53357 68.4973 10.3541C68.4973 12.1747 67.7972 13.7374 66.3969 15.0424C64.9967 16.3474 63.2797 16.9999 61.246 16.9999C59.2122 16.9999 57.4953 16.3474 56.095 15.0424ZM59.1706 8.08246C58.6371 8.64634 58.3704 9.40356 58.3704 10.3541C58.3704 11.3047 58.6371 12.0699 59.1706 12.6499C59.7207 13.2138 60.4125 13.4958 61.246 13.4958C62.0794 13.4958 62.7629 13.2138 63.2963 12.6499C63.8464 12.0699 64.1215 11.3047 64.1215 10.3541C64.1215 9.40356 63.8464 8.64634 63.2963 8.08246C62.7629 7.50246 62.0794 7.21247 61.246 7.21247C60.4125 7.21247 59.7207 7.50246 59.1706 8.08246Z" fill="#141414"/>
<path d="M70.3697 16.9999V1H74.6205V6.12497H74.8705C75.1039 5.73831 75.404 5.39998 75.7707 5.10998C76.6209 4.41721 77.6127 4.07082 78.7463 4.07082C80.2799 4.07082 81.4718 4.52193 82.3219 5.42414C83.1887 6.31025 83.6222 7.59107 83.6222 9.26662V16.9999H79.3714V9.87078C79.3714 9.14578 79.1713 8.5819 78.7713 8.17912C78.3712 7.77635 77.8211 7.57496 77.121 7.57496C76.4042 7.57496 75.804 7.83274 75.3206 8.34829C74.8539 8.84773 74.6205 9.51634 74.6205 10.3541V16.9999H70.3697Z" fill="#141414"/>
<path d="M86.5477 15.5499C85.4308 14.3255 84.8724 12.7144 84.8724 10.7166C84.8724 8.71884 85.4308 7.1158 86.5477 5.90748C87.6646 4.68304 89.0232 4.07082 90.6235 4.07082C91.657 4.07082 92.6322 4.41721 93.549 5.10998C93.9324 5.41609 94.2491 5.75442 94.4992 6.12497H94.7492V4.43332H99V16.9999H94.7492V15.3082H94.4992C94.2658 15.6949 93.9491 16.0413 93.549 16.3474C92.6488 17.0241 91.6736 16.9999 90.6235 16.9999C89.0232 16.9999 87.6646 16.7582 86.5477 15.5499ZM89.9983 8.39662C89.4982 8.9444 89.2482 9.71772 89.2482 10.7166C89.2482 11.7155 89.4982 12.4888 89.9983 13.0366C90.4984 13.5844 91.1652 13.8582 91.9987 13.8582C92.8322 13.8582 93.499 13.5844 93.9991 13.0366C94.4992 12.4888 94.7492 11.7155 94.7492 10.7166C94.7492 9.71772 94.4992 8.9444 93.9991 8.39662C93.499 7.84885 92.8322 7.57496 91.9987 7.57496C91.1652 7.57496 90.4984 7.84885 89.9983 8.39662Z" fill="#141414"/>
</svg>
