<svg width="16" height="16" viewBox="0 0 16 16" fill="none" xmlns="http://www.w3.org/2000/svg">
<path d="M7.50005 3.5C7.50005 3.10444 7.61735 2.71776 7.83711 2.38886C8.05688 2.05996 8.36923 1.80362 8.73469 1.65224C9.10014 1.50087 9.50227 1.46126 9.89023 1.53843C10.2782 1.6156 10.6346 1.80608 10.9143 2.08579C11.194 2.36549 11.3845 2.72186 11.4616 3.10982C11.5388 3.49778 11.4992 3.89992 11.3478 4.26537C11.1964 4.63082 10.9401 4.94318 10.6112 5.16294C10.2823 5.3827 9.89562 5.5 9.50005 5.5C8.97013 5.49835 8.46238 5.28711 8.08766 4.91239C7.71294 4.53768 7.5017 4.02993 7.50005 3.5ZM14.0001 8.35C14.0001 8.21739 13.9474 8.09022 13.8536 7.99645C13.7598 7.90268 13.6327 7.85 13.5001 7.85C13.4195 7.84936 13.3401 7.86868 13.2688 7.90625H13.2751C13.2688 7.90625 12.8688 8.1 12.1376 8.025C11.4063 7.95 10.2938 7.625 8.8063 6.45625C7.8688 5.725 6.41255 4.91875 4.7813 5.23125C3.7938 5.41875 3.22505 5.925 3.16255 5.98125C3.1134 6.02512 3.07353 6.07838 3.04528 6.13789C3.01703 6.19741 3.00098 6.26197 2.99807 6.32779C2.99516 6.3936 3.00544 6.45934 3.02833 6.52111C3.05121 6.58289 3.08622 6.63946 3.1313 6.6875C3.22083 6.78527 3.34552 6.84349 3.47796 6.84935C3.6104 6.85521 3.73974 6.80823 3.83755 6.71875C3.9063 6.65625 5.45005 5.31875 7.87505 7.00625C7.57796 8.00158 7.11523 8.93972 6.5063 9.78125L6.3563 9.975C5.17505 11.4875 3.72505 12.1625 2.05005 11.9938C1.91745 11.9805 1.785 12.0205 1.68186 12.1048C1.57871 12.1892 1.51331 12.3111 1.50005 12.4438C1.48679 12.5764 1.52675 12.7088 1.61115 12.8119C1.69554 12.9151 1.81745 12.9805 1.95005 12.9938C2.1563 13.0125 2.35005 13.0188 2.5438 13.0188C4.5813 13.0188 6.0813 11.9313 7.1188 10.625C8.3313 10.95 10.5001 11.8875 10.5001 14.4938C10.5001 14.6264 10.5527 14.7535 10.6465 14.8473C10.7403 14.9411 10.8674 14.9938 11.0001 14.9938C11.1327 14.9938 11.2598 14.9411 11.3536 14.8473C11.4474 14.7535 11.5001 14.6264 11.5001 14.4938C11.5001 12.95 10.8688 11.6563 9.67505 10.75C9.02505 10.2563 8.30005 9.95 7.72505 9.7625C8.13889 9.09272 8.47442 8.37761 8.72505 7.63125C10.3376 8.75 11.6126 9.025 12.4751 9.025C13.3376 9.025 13.6938 8.80625 13.7313 8.78125C13.8114 8.74103 13.8789 8.67949 13.9263 8.60341C13.9737 8.52733 13.9992 8.43964 14.0001 8.35Z" fill="#73CBF6"/>
</svg>
