<svg width="16" height="16" viewBox="0 0 16 16" fill="none" xmlns="http://www.w3.org/2000/svg">
<path d="M7.99377 5C9.23642 5 10.2438 3.99264 10.2438 2.75C10.2438 1.50736 9.23642 0.5 7.99377 0.5C6.75113 0.5 5.74377 1.50736 5.74377 2.75C5.74377 3.99264 6.75113 5 7.99377 5Z" fill="#FF53DE"/>
<path d="M13.2312 8.71875L10.7687 5.55625L10.7312 5.5125C10.5691 5.34945 10.3763 5.22018 10.1638 5.13221C9.95141 5.04424 9.72363 4.9993 9.49371 5H6.49371C6.26379 4.9993 6.03602 5.04424 5.82359 5.13221C5.61117 5.22018 5.41831 5.34945 5.25621 5.5125L5.21246 5.55625L2.75621 8.71875C2.52166 8.9533 2.38989 9.27142 2.38989 9.60313C2.38989 9.93483 2.52166 10.2529 2.75621 10.4875C2.99076 10.7221 3.30888 10.8538 3.64059 10.8538C3.97229 10.8538 4.29041 10.7221 4.52496 10.4875L5.40621 9.8L4.16246 13.7188C4.03899 14.011 4.03007 14.339 4.13746 14.6375C4.19362 14.7924 4.28 14.9346 4.39159 15.0559C4.50317 15.1771 4.63774 15.275 4.78746 15.3438C4.9349 15.414 5.0949 15.4541 5.25804 15.4616C5.42119 15.4691 5.58419 15.4439 5.73746 15.3875C6.0379 15.2785 6.28583 15.0596 6.43121 14.775L7.99371 12.3125L9.55621 14.775C9.70108 15.0577 9.94625 15.2761 10.2437 15.3875C10.3822 15.4366 10.528 15.4619 10.675 15.4625C10.8567 15.4634 11.0363 15.4228 11.2 15.3438C11.5012 15.2031 11.7347 14.9493 11.85 14.6375C11.9586 14.3387 11.9474 14.0095 11.8187 13.7188L10.5812 9.8L11.4625 10.4875C11.6991 10.7113 12.0137 10.834 12.3394 10.8293C12.6651 10.8247 12.9761 10.693 13.2062 10.4625C13.3222 10.3471 13.4139 10.2097 13.4762 10.0584C13.5384 9.90706 13.5699 9.74486 13.5687 9.58125C13.5714 9.26102 13.4506 8.95208 13.2312 8.71875Z" fill="#FF53DE"/>
</svg>
