<svg width="16" height="16" viewBox="0 0 16 16" fill="none" xmlns="http://www.w3.org/2000/svg">
<path d="M13.5625 2.19376C13.4287 2.10185 13.2745 2.04412 13.1132 2.0256C12.952 2.00707 12.7886 2.02833 12.6375 2.08751C11.7625 2.43126 9.9875 3.00001 8 3.00001C6.0125 3.00001 4.2375 2.43126 3.3625 2.08751C3.21101 2.02858 3.04743 2.00748 2.88594 2.02602C2.72446 2.04456 2.56992 2.10218 2.43572 2.1939C2.30152 2.28563 2.19171 2.40868 2.11579 2.55241C2.03986 2.69614 2.00012 2.85621 2 3.01876V6.50001C2 8.73751 2.60625 10.8438 3.7 12.4375C4.79375 14.0313 6.3625 15 8 15C9.6375 15 11.1687 14.0938 12.3 12.4375C13.4313 10.7813 14 8.73751 14 6.50001V3.01876C14.0002 2.85592 13.9605 2.69552 13.8842 2.55167C13.8079 2.40781 13.6974 2.2849 13.5625 2.19376ZM5.00625 8.33126C4.96278 8.38054 4.91001 8.42077 4.85098 8.44965C4.79194 8.47853 4.72779 8.49548 4.66219 8.49955C4.5966 8.50361 4.53085 8.4947 4.4687 8.47333C4.40655 8.45196 4.34923 8.41855 4.3 8.37501C4.25115 8.3311 4.21143 8.27801 4.18311 8.21875C4.15479 8.15949 4.13842 8.09524 4.13494 8.02965C4.13146 7.96407 4.14093 7.89844 4.16282 7.83651C4.18471 7.77459 4.21858 7.71759 4.2625 7.66876C4.44898 7.45831 4.678 7.28983 4.93442 7.17445C5.19084 7.05906 5.46882 6.9994 5.75 6.9994C6.03118 6.9994 6.30916 7.05906 6.56558 7.17445C6.822 7.28983 7.05102 7.45831 7.2375 7.66876C7.28142 7.71759 7.3153 7.77459 7.33718 7.83651C7.35907 7.89844 7.36854 7.96407 7.36506 8.02965C7.36158 8.09524 7.34521 8.15949 7.31689 8.21875C7.28857 8.27801 7.24885 8.3311 7.2 8.37501C7.10823 8.45518 6.99061 8.49957 6.86875 8.50001C6.79785 8.50007 6.72775 8.48506 6.6631 8.45597C6.59845 8.42687 6.54072 8.38436 6.49375 8.33126C6.39997 8.22691 6.28529 8.14347 6.15715 8.08635C6.02901 8.02923 5.89029 7.99971 5.75 7.99971C5.60971 7.99971 5.47099 8.02923 5.34285 8.08635C5.21471 8.14347 5.10003 8.22691 5.00625 8.33126ZM9.9375 11.4188C9.3625 11.798 8.68882 12.0002 8 12.0002C7.31118 12.0002 6.6375 11.798 6.0625 11.4188C5.95357 11.3439 5.87821 11.2295 5.85252 11.0999C5.82683 10.9702 5.85284 10.8357 5.925 10.725C5.96103 10.6699 6.00758 10.6225 6.06198 10.5854C6.11638 10.5484 6.17757 10.5224 6.24202 10.5091C6.30648 10.4957 6.37294 10.4952 6.43758 10.5076C6.50223 10.52 6.5638 10.545 6.61875 10.5813C7.02767 10.8543 7.50832 11 8 11C8.49168 11 8.97234 10.8543 9.38125 10.5813C9.4362 10.545 9.49777 10.52 9.56242 10.5076C9.62706 10.4952 9.69352 10.4957 9.75798 10.5091C9.82243 10.5224 9.88362 10.5484 9.93802 10.5854C9.99242 10.6225 10.039 10.6699 10.075 10.725C10.1472 10.8357 10.1732 10.9702 10.1475 11.0999C10.1218 11.2295 10.0464 11.3439 9.9375 11.4188ZM11.7 8.37501C11.6082 8.45518 11.4906 8.49957 11.3687 8.50001C11.2979 8.50007 11.2278 8.48506 11.1631 8.45597C11.0984 8.42687 11.0407 8.38436 10.9937 8.33126C10.9 8.22691 10.7853 8.14347 10.6572 8.08635C10.529 8.02923 10.3903 7.99971 10.25 7.99971C10.1097 7.99971 9.97099 8.02923 9.84285 8.08635C9.71471 8.14347 9.60003 8.22691 9.50625 8.33126C9.46278 8.38054 9.41001 8.42077 9.35098 8.44965C9.29194 8.47853 9.22779 8.49548 9.1622 8.49955C9.0966 8.50361 9.03085 8.4947 8.9687 8.47333C8.90655 8.45196 8.84923 8.41855 8.8 8.37501C8.75115 8.3311 8.71144 8.27801 8.68311 8.21875C8.65479 8.15949 8.63842 8.09524 8.63494 8.02965C8.63146 7.96407 8.64093 7.89844 8.66282 7.83651C8.6847 7.77459 8.71858 7.71759 8.7625 7.66876C8.94898 7.45831 9.178 7.28983 9.43442 7.17445C9.69083 7.05906 9.96882 6.9994 10.25 6.9994C10.5312 6.9994 10.8092 7.05906 11.0656 7.17445C11.322 7.28983 11.551 7.45831 11.7375 7.66876C11.7814 7.71759 11.8153 7.77459 11.8372 7.83651C11.8591 7.89844 11.8685 7.96407 11.8651 8.02965C11.8616 8.09524 11.8452 8.15949 11.8169 8.21875C11.7886 8.27801 11.7488 8.3311 11.7 8.37501Z" fill="#D971EF"/>
</svg>
