<svg width="16" height="16" viewBox="0 0 16 16" fill="none" xmlns="http://www.w3.org/2000/svg">
<path d="M10.5 14C10.5 14.1326 10.4473 14.2598 10.3536 14.3536C10.2598 14.4473 10.1326 14.5 10 14.5H6C5.86739 14.5 5.74021 14.4473 5.64645 14.3536C5.55268 14.2598 5.5 14.1326 5.5 14C5.5 13.8674 5.55268 13.7402 5.64645 13.6464C5.74021 13.5527 5.86739 13.5 6 13.5H10C10.1326 13.5 10.2598 13.5527 10.3536 13.6464C10.4473 13.7402 10.5 13.8674 10.5 14ZM14.5 4V11C14.4984 11.3973 14.3398 11.7779 14.0588 12.0588C13.7779 12.3398 13.3973 12.4984 13 12.5H3C2.60268 12.4984 2.22211 12.3398 1.94116 12.0588C1.66021 11.7779 1.50165 11.3973 1.5 11V4C1.50165 3.60268 1.66021 3.22211 1.94116 2.94116C2.22211 2.66021 2.60268 2.50165 3 2.5H13C13.3973 2.50165 13.7779 2.66021 14.0588 2.94116C14.3398 3.22211 14.4984 3.60268 14.5 4V4ZM10.25 7.5C10.2501 7.41632 10.2289 7.334 10.1885 7.26075C10.148 7.1875 10.0896 7.12574 10.0188 7.08125L7.26875 5.33125C7.19393 5.28269 7.10735 5.2553 7.01821 5.252C6.92908 5.2487 6.84071 5.26961 6.7625 5.3125C6.6835 5.35514 6.61744 5.41827 6.57125 5.49525C6.52506 5.57223 6.50045 5.66023 6.5 5.75V9.25C6.50045 9.33977 6.52506 9.42777 6.57125 9.50475C6.61744 9.58173 6.6835 9.64486 6.7625 9.6875C6.84028 9.73175 6.92886 9.75344 7.01829 9.75013C7.10772 9.74682 7.19445 9.71864 7.26875 9.66875L10.0188 7.91875C10.0896 7.87426 10.148 7.8125 10.1885 7.73925C10.2289 7.666 10.2501 7.58368 10.25 7.5V7.5Z" fill="#5FF1AF"/>
</svg>
