<svg width="16" height="16" viewBox="0 0 16 16" fill="none" xmlns="http://www.w3.org/2000/svg">
<path d="M8 11C8.79565 11 9.55871 10.6839 10.1213 10.1213C10.6839 9.55871 11 8.79565 11 8V4C11 3.20435 10.6839 2.44129 10.1213 1.87868C9.55871 1.31607 8.79565 1 8 1C7.20435 1 6.44129 1.31607 5.87868 1.87868C5.31607 2.44129 5 3.20435 5 4V8C5 8.79565 5.31607 9.55871 5.87868 10.1213C6.44129 10.6839 7.20435 11 8 11Z" fill="#FF535C"/>
<path d="M12.5251 8.00625C12.3943 7.99216 12.2632 8.03018 12.1602 8.11207C12.0573 8.19397 11.9907 8.31314 11.9751 8.44375C11.8653 9.42116 11.3992 10.3238 10.6659 10.9794C9.93268 11.6349 8.9836 11.9972 8.00005 11.9972C7.0165 11.9972 6.06743 11.6349 5.33416 10.9794C4.6009 10.3238 4.13485 9.42116 4.02505 8.44375C4.00937 8.31314 3.94284 8.19397 3.83988 8.11207C3.73693 8.03018 3.60585 7.99216 3.47505 8.00625C3.4095 8.01246 3.34585 8.03171 3.28784 8.06288C3.22984 8.09406 3.17866 8.13652 3.13731 8.18777C3.09596 8.23901 3.06528 8.29802 3.04708 8.3613C3.02887 8.42458 3.02351 8.49086 3.0313 8.55625C3.15918 9.6907 3.67285 10.7468 4.48634 11.5478C5.29983 12.3487 6.36376 12.846 7.50005 12.9563V14.5C7.50005 14.6326 7.55273 14.7598 7.6465 14.8536C7.74027 14.9473 7.86744 15 8.00005 15C8.13266 15 8.25984 14.9473 8.35361 14.8536C8.44738 14.7598 8.50005 14.6326 8.50005 14.5V12.9563C9.63635 12.846 10.7003 12.3487 11.5138 11.5478C12.3273 10.7468 12.8409 9.6907 12.9688 8.55625C12.9766 8.49086 12.9712 8.42458 12.953 8.3613C12.9348 8.29802 12.9041 8.23901 12.8628 8.18777C12.8214 8.13652 12.7703 8.09406 12.7123 8.06288C12.6543 8.03171 12.5906 8.01246 12.5251 8.00625Z" fill="#FF535C"/>
</svg>
