<svg width="16" height="16" viewBox="0 0 16 16" fill="none" xmlns="http://www.w3.org/2000/svg">
<path d="M13.5 6.5H6.29998L13.2562 4.6375C13.3195 4.61986 13.3787 4.58977 13.4302 4.54899C13.4817 4.50821 13.5245 4.45756 13.5562 4.4C13.5902 4.3444 13.6121 4.28233 13.6207 4.21777C13.6294 4.1532 13.6244 4.08755 13.6062 4.025L13.0875 2.09375C13.0548 1.96675 12.9972 1.84753 12.918 1.74303C12.8388 1.63853 12.7396 1.55085 12.6262 1.48511C12.5127 1.41937 12.3873 1.37688 12.2573 1.36012C12.1272 1.34336 11.9951 1.35267 11.8687 1.3875L2.20623 3.975C2.07899 4.00834 1.95964 4.0666 1.85509 4.14642C1.75055 4.22623 1.66288 4.326 1.59719 4.43995C1.53149 4.5539 1.48907 4.67976 1.47238 4.81023C1.4557 4.9407 1.46508 5.07318 1.49998 5.2L1.99998 7.06875V12.5C1.99998 12.7652 2.10534 13.0196 2.29287 13.2071C2.48041 13.3946 2.73477 13.5 2.99998 13.5H13C13.2652 13.5 13.5196 13.3946 13.7071 13.2071C13.8946 13.0196 14 12.7652 14 12.5V7C14 6.86739 13.9473 6.74021 13.8535 6.64645C13.7598 6.55268 13.6326 6.5 13.5 6.5ZM10.5812 4.31875L6.23123 5.48125L4.39998 4.41875L8.74373 3.25625L10.5812 4.31875ZM13 12.5H2.99998V7.5H13V12.5Z" fill="#8F5EEC"/>
</svg>
