<svg width="16" height="16" viewBox="0 0 16 16" fill="none" xmlns="http://www.w3.org/2000/svg">
<path d="M5.99995 5.5C5.99877 5.66077 6.00712 5.82147 6.02495 5.98125L1.34995 12.3562C1.20837 12.5491 1.14061 12.7863 1.15895 13.0248C1.1773 13.2633 1.28055 13.4873 1.44995 13.6562L2.3437 14.55C2.51261 14.7194 2.73665 14.8227 2.97516 14.841C3.21368 14.8593 3.45088 14.7916 3.6437 14.65L10.0187 9.975C10.1785 9.99283 10.3392 10.0012 10.5 10C11.4185 10.0001 12.315 9.71871 13.0687 9.19375C13.0984 9.17264 13.1231 9.14529 13.1412 9.11362C13.1592 9.08195 13.1701 9.04672 13.173 9.0104C13.176 8.97408 13.171 8.93755 13.1584 8.90336C13.1458 8.86918 13.1258 8.83817 13.1 8.8125L7.18745 2.9C7.16179 2.87413 7.13078 2.85419 7.09659 2.84156C7.06241 2.82894 7.02588 2.82394 6.98956 2.82691C6.95324 2.82989 6.91801 2.84077 6.88634 2.85879C6.85466 2.87682 6.82731 2.90155 6.8062 2.93125C6.28124 3.68498 5.99986 4.58147 5.99995 5.5ZM7.1062 9.60625L5.8562 10.8562C5.76063 10.9487 5.63289 11.0003 5.49995 11.0003C5.36701 11.0003 5.23927 10.9487 5.1437 10.8562C5.04981 10.7615 4.99714 10.6334 4.99714 10.5C4.99714 10.3666 5.04981 10.2385 5.1437 10.1438L6.3937 8.89375C6.49085 8.81402 6.61418 8.77327 6.73971 8.77944C6.86523 8.7856 6.98398 8.83824 7.07285 8.9271C7.16172 9.01597 7.21435 9.13472 7.22052 9.26024C7.22668 9.38577 7.18593 9.5091 7.1062 9.60625ZM14.9937 5.25C15.049 6.25252 14.7674 7.24473 14.1937 8.06875C14.1726 8.09845 14.1452 8.12318 14.1136 8.14121C14.0819 8.15923 14.0467 8.17011 14.0103 8.17309C13.974 8.17606 13.9375 8.17106 13.9033 8.15844C13.8691 8.14581 13.8381 8.12587 13.8125 8.1L7.89995 2.1875C7.87408 2.16183 7.85414 2.13082 7.84151 2.09664C7.82889 2.06245 7.82389 2.02592 7.82687 1.9896C7.82984 1.95328 7.84072 1.91805 7.85875 1.88638C7.87677 1.85471 7.9015 1.82736 7.9312 1.80625C8.58859 1.34902 9.35607 1.07549 10.1545 1.01388C10.9528 0.952269 11.7532 1.10481 12.473 1.45577C13.1927 1.80673 13.8058 2.34339 14.2489 3.01037C14.692 3.67735 14.9491 4.45048 14.9937 5.25Z" fill="#FF9F52"/>
</svg>
