<svg width="16" height="16" viewBox="0 0 16 16" fill="none" xmlns="http://www.w3.org/2000/svg">
<path d="M10.92 15.1667H2.15997C1.52664 15.1667 0.939975 14.8734 0.559975 14.36C0.173308 13.84 0.0599805 13.1867 0.253314 12.5667L3.05997 3.54663C3.31331 2.70663 4.08665 2.1333 4.96665 2.1333H13.1666C13.9733 2.1333 14.7 2.61336 15.0066 3.36003C15.1733 3.74669 15.2066 4.1867 15.1066 4.62004L12.86 13.64C12.6466 14.54 11.8466 15.1667 10.92 15.1667ZM4.9733 3.13997C4.53997 3.13997 4.14664 3.42668 4.01998 3.84668L1.21332 12.8667C1.11998 13.18 1.17331 13.5067 1.37331 13.7734C1.55998 14.0267 1.85331 14.1733 2.16664 14.1733H10.9267C11.3867 14.1733 11.7866 13.86 11.8933 13.4133L14.14 4.38664C14.1933 4.16664 14.18 3.94667 14.0933 3.75334C13.9333 3.37334 13.58 3.1333 13.1733 3.1333H4.9733V3.13997Z" fill="#666666"/>
<path d="M13.8534 15.1666H10.6667C10.3934 15.1666 10.1667 14.94 10.1667 14.6666C10.1667 14.3933 10.3934 14.1666 10.6667 14.1666H13.8534C14.1267 14.1666 14.38 14.0533 14.5667 13.8533C14.7534 13.6533 14.8467 13.3867 14.8267 13.1133L14.1667 4.03334C14.1467 3.76001 14.3534 3.51997 14.6267 3.49997C14.9 3.48664 15.14 3.6866 15.16 3.95993L15.82 13.04C15.86 13.5867 15.6667 14.1333 15.2934 14.5333C14.9267 14.94 14.4 15.1666 13.8534 15.1666Z" fill="#666666"/>
<path d="M6.4532 4.7533C6.4132 4.7533 6.3732 4.74662 6.3332 4.73995C6.06654 4.67329 5.89988 4.4066 5.96654 4.13326L6.65986 1.2533C6.72653 0.986633 6.9932 0.819934 7.26653 0.886601C7.5332 0.953268 7.69988 1.21996 7.63321 1.49329L6.93987 4.37334C6.88654 4.6 6.67986 4.7533 6.4532 4.7533Z" fill="#666666"/>
<path d="M10.92 4.76C10.8866 4.76 10.8466 4.75998 10.8133 4.74665C10.5466 4.68665 10.3733 4.41997 10.4266 4.15331L11.0533 1.26C11.1133 0.986663 11.38 0.820026 11.6466 0.873359C11.9133 0.926693 12.0866 1.19995 12.0333 1.46662L11.4066 4.36001C11.3599 4.60001 11.1533 4.76 10.92 4.76Z" fill="#666666"/>
<path d="M10.4668 8.5H5.13348C4.86015 8.5 4.63348 8.27333 4.63348 8C4.63348 7.72667 4.86015 7.5 5.13348 7.5H10.4668C10.7402 7.5 10.9668 7.72667 10.9668 8C10.9668 8.27333 10.7402 8.5 10.4668 8.5Z" fill="#666666"/>
<path d="M9.80013 11.1667H4.4668C4.19346 11.1667 3.9668 10.94 3.9668 10.6667C3.9668 10.3933 4.19346 10.1667 4.4668 10.1667H9.80013C10.0735 10.1667 10.3001 10.3933 10.3001 10.6667C10.3001 10.94 10.0735 11.1667 9.80013 11.1667Z" fill="#666666"/>
</svg>
