<svg width="16" height="16" viewBox="0 0 16 16" fill="none" xmlns="http://www.w3.org/2000/svg">
<path d="M8.00002 9.83332C6.98669 9.83332 6.16669 9.01332 6.16669 7.99999C6.16669 6.98666 6.98669 6.16666 8.00002 6.16666C9.01335 6.16666 9.83335 6.98666 9.83335 7.99999C9.83335 9.01332 9.01335 9.83332 8.00002 9.83332ZM8.00002 7.16666C7.54002 7.16666 7.16669 7.53999 7.16669 7.99999C7.16669 8.45999 7.54002 8.83332 8.00002 8.83332C8.46002 8.83332 8.83335 8.45999 8.83335 7.99999C8.83335 7.53999 8.46002 7.16666 8.00002 7.16666Z" fill="#666666"/>
<path d="M13.3335 12.5C13.2268 12.5 13.1268 12.4667 13.0335 12.4C12.8135 12.2334 12.7668 11.92 12.9335 11.7C13.7402 10.6267 14.1668 9.3467 14.1668 8.00004C14.1668 6.65337 13.7402 5.37338 12.9335 4.30004C12.7668 4.08004 12.8135 3.7667 13.0335 3.60003C13.2535 3.43336 13.5668 3.48003 13.7335 3.70003C14.6735 4.94669 15.1668 6.43337 15.1668 8.00004C15.1668 9.5667 14.6735 11.0534 13.7335 12.3C13.6335 12.4334 13.4868 12.5 13.3335 12.5Z" fill="#666666"/>
<path d="M2.66665 12.5C2.51331 12.5 2.36664 12.4334 2.26664 12.3C1.32664 11.0534 0.833313 9.5667 0.833313 8.00004C0.833313 6.43337 1.32664 4.94669 2.26664 3.70003C2.43331 3.48003 2.74665 3.43336 2.96665 3.60003C3.18665 3.7667 3.23332 4.08004 3.06665 4.30004C2.25998 5.37338 1.83331 6.65337 1.83331 8.00004C1.83331 9.3467 2.25998 10.6267 3.06665 11.7C3.23332 11.92 3.18665 12.2334 2.96665 12.4C2.87999 12.4667 2.77331 12.5 2.66665 12.5Z" fill="#666666"/>
<path d="M11.2001 10.9C11.0934 10.9 10.9934 10.8667 10.9001 10.8C10.6801 10.6333 10.6334 10.32 10.8001 10.1C11.2601 9.49334 11.5001 8.76667 11.5001 8.00001C11.5001 7.23334 11.2601 6.50668 10.8001 5.90001C10.6334 5.68001 10.6801 5.36667 10.9001 5.2C11.1201 5.03333 11.4334 5.08002 11.6001 5.30002C12.1867 6.08668 12.5001 7.02001 12.5001 8.00001C12.5001 8.98001 12.1867 9.92 11.6001 10.7C11.5001 10.8333 11.3534 10.9 11.2001 10.9Z" fill="#666666"/>
<path d="M4.80001 10.9C4.64667 10.9 4.5 10.8333 4.4 10.7C3.81334 9.91333 3.5 8.98001 3.5 8.00001C3.5 7.02001 3.81334 6.08002 4.4 5.30002C4.56667 5.08002 4.88 5.03333 5.1 5.2C5.32 5.36667 5.36666 5.68001 5.19999 5.90001C4.73999 6.50668 4.5 7.23334 4.5 8.00001C4.5 8.76667 4.73999 9.49334 5.19999 10.1C5.36666 10.32 5.32 10.6333 5.1 10.8C5.01333 10.8667 4.90667 10.9 4.80001 10.9Z" fill="#666666"/>
</svg>
