<svg width="16" height="16" viewBox="0 0 16 16" fill="none" xmlns="http://www.w3.org/2000/svg">
<path d="M5.99998 15.1667H4.66665C1.72665 15.1667 0.833313 14.2733 0.833313 11.3333V4.66668C0.833313 1.72668 1.72665 0.833344 4.66665 0.833344H5.66665C6.83331 0.833344 7.19998 1.21334 7.66665 1.83334L8.66665 3.16668C8.88665 3.46001 8.91998 3.50001 9.33331 3.50001H11.3333C14.2733 3.50001 15.1666 4.39334 15.1666 7.33334V8.66668C15.1666 8.94001 14.94 9.16668 14.6666 9.16668C14.3933 9.16668 14.1666 8.94001 14.1666 8.66668V7.33334C14.1666 4.95334 13.72 4.50001 11.3333 4.50001H9.33331C8.47998 4.50001 8.19997 4.20667 7.86664 3.76667L6.86664 2.43334C6.51997 1.97334 6.41331 1.83334 5.66665 1.83334H4.66665C2.27998 1.83334 1.83331 2.28668 1.83331 4.66668V11.3333C1.83331 13.7133 2.27998 14.1667 4.66665 14.1667H5.99998C6.27331 14.1667 6.49998 14.3933 6.49998 14.6667C6.49998 14.94 6.27331 15.1667 5.99998 15.1667Z" fill="#666666"/>
<path d="M12.8935 15.2066C12.8868 15.2066 12.8801 15.2066 12.8735 15.2066H9.16681C8.05348 15.1266 7.49347 14.2733 7.49347 13.46C7.49347 12.8067 7.86013 12.12 8.56679 11.84C8.42013 11.0067 8.6335 10.2333 9.18683 9.65332C9.86683 8.93999 10.9601 8.65332 11.9068 8.93999C12.7335 9.19332 13.3268 9.84665 13.5735 10.7533C14.2735 10.9667 14.8268 11.52 15.0535 12.2733C15.3202 13.1467 15.0735 14.04 14.4135 14.6133C14.0135 14.9933 13.4668 15.2066 12.8935 15.2066ZM9.19346 12.7133C8.68679 12.76 8.50014 13.14 8.50014 13.46C8.50014 13.78 8.68681 14.1666 9.20681 14.2066H12.8801C13.2001 14.2333 13.5202 14.0866 13.7602 13.8733C14.1935 13.4933 14.2201 12.9533 14.1068 12.5667C13.9935 12.18 13.6602 11.7467 13.1002 11.6733C12.8802 11.6467 12.7068 11.48 12.6668 11.26C12.5201 10.36 12.0135 10.0267 11.6201 9.89999C11.0335 9.71999 10.3401 9.90664 9.92015 10.3466C9.63348 10.6466 9.35348 11.1867 9.66681 12.0467C9.76014 12.3067 9.6268 12.5933 9.3668 12.6866C9.3068 12.7066 9.24679 12.7133 9.19346 12.7133Z" fill="#666666"/>
</svg>
