<svg width="16" height="16" viewBox="0 0 16 16" fill="none" xmlns="http://www.w3.org/2000/svg">
<path d="M7.98002 15.1667C4.03335 15.1667 0.813354 11.9533 0.813354 8C0.813354 4.04667 4.03335 0.833336 7.98002 0.833336C11.9267 0.833336 15.1467 4.04667 15.1467 8C15.1467 11.9533 11.9334 15.1667 7.98002 15.1667ZM7.98002 1.83334C4.58002 1.83334 1.81335 4.6 1.81335 8C1.81335 11.4 4.58002 14.1667 7.98002 14.1667C11.38 14.1667 14.1467 11.4 14.1467 8C14.1467 4.6 11.38 1.83334 7.98002 1.83334Z" fill="#666666"/>
<path d="M8.00002 12.8333C6.56669 12.8333 5.22002 12.1333 4.40002 10.9533C4.24002 10.7267 4.30002 10.4133 4.52669 10.26C4.75335 10.1 5.06669 10.16 5.22002 10.3867C5.85335 11.2933 6.89335 11.84 8.00002 11.84C9.10669 11.84 10.1467 11.3 10.78 10.3867C10.94 10.16 11.2467 10.1067 11.4734 10.26C11.7 10.42 11.7534 10.7267 11.6 10.9533C10.78 12.1333 9.43335 12.8333 8.00002 12.8333Z" fill="#666666"/>
</svg>
