<svg width="16" height="16" viewBox="0 0 16 16" fill="none" xmlns="http://www.w3.org/2000/svg">
<path d="M8 1.5C4.6375 1.5 2 3.0375 2 5V11C2 12.9625 4.6375 14.5 8 14.5C11.3625 14.5 14 12.9625 14 11V5C14 3.0375 11.3625 1.5 8 1.5ZM13 8C13 8.6 12.5062 9.2125 11.65 9.68125C10.6812 10.2125 9.3875 10.5 8 10.5C6.6125 10.5 5.31875 10.2125 4.35 9.68125C3.49375 9.2125 3 8.6 3 8V6.9625C4.06875 7.89375 5.8875 8.5 8 8.5C10.1125 8.5 11.9312 7.89375 13 6.9625V8ZM11.65 12.6812C10.6812 13.2125 9.3875 13.5 8 13.5C6.6125 13.5 5.31875 13.2125 4.35 12.6812C3.49375 12.2125 3 11.6 3 11V9.9625C4.06875 10.8937 5.8875 11.5 8 11.5C10.1125 11.5 11.9312 10.8937 13 9.9625V11C13 11.6 12.5062 12.2125 11.65 12.6812Z" fill="#FF5219"/>
</svg>
