<svg width="16" height="16" viewBox="0 0 16 16" fill="none" xmlns="http://www.w3.org/2000/svg">
<path d="M11.3333 14.0267H4.66665C2.55331 14.0267 0.833313 12.3067 0.833313 10.1933V3.80667C0.833313 2.94 1.23331 2.64 1.47331 2.54C1.71331 2.44 2.20665 2.36667 2.81998 2.98L4.54665 4.70667C4.61331 4.77334 4.71998 4.77334 4.77998 4.70667L7.17331 2.31334C7.61331 1.87334 8.38665 1.87334 8.81998 2.31334L11.2133 4.70667C11.28 4.77334 11.3866 4.77334 11.4466 4.70667L13.1733 2.98C13.7866 2.36667 14.28 2.44667 14.52 2.54C14.76 2.64 15.16 2.93334 15.16 3.80667V10.2C15.1666 12.4867 13.6266 14.0267 11.3333 14.0267ZM1.87331 3.49334C1.85331 3.54667 1.83331 3.64667 1.83331 3.80667V10.2C1.83331 11.76 3.10665 13.0333 4.66665 13.0333H11.3333C13.0533 13.0333 14.1666 11.92 14.1666 10.2V3.80667C14.1666 3.64667 14.1466 3.55334 14.1266 3.5C14.0733 3.52667 13.9933 3.58 13.88 3.69334L12.1533 5.42C11.7133 5.86 10.94 5.86 10.5066 5.42L8.11331 3.02667C8.04665 2.96 7.93998 2.96 7.87998 3.02667L5.49331 5.41334C5.05331 5.85334 4.27998 5.85334 3.84665 5.41334L2.11998 3.68667C2.00665 3.57334 1.91998 3.52 1.87331 3.49334Z" fill="#666666"/>
</svg>
