<svg width="16" height="16" viewBox="0 0 16 16" fill="none" xmlns="http://www.w3.org/2000/svg">
<path d="M10.6666 15.1667H1.99998C1.35998 15.1667 0.833313 14.64 0.833313 14V5.33334C0.833313 2.38668 2.38665 0.833344 5.33331 0.833344H10.6666C13.6133 0.833344 15.1666 2.38668 15.1666 5.33334V10.6667C15.1666 13.6133 13.6133 15.1667 10.6666 15.1667ZM5.33331 1.83334C2.94665 1.83334 1.83331 2.94668 1.83331 5.33334V14C1.83331 14.0933 1.90665 14.1667 1.99998 14.1667H10.6666C13.0533 14.1667 14.1666 13.0533 14.1666 10.6667V5.33334C14.1666 2.94668 13.0533 1.83334 10.6666 1.83334H5.33331Z" fill="#666666"/>
<path d="M11.3334 6.83334H4.66669C4.39335 6.83334 4.16669 6.60668 4.16669 6.33334C4.16669 6.06001 4.39335 5.83334 4.66669 5.83334H11.3334C11.6067 5.83334 11.8334 6.06001 11.8334 6.33334C11.8334 6.60668 11.6067 6.83334 11.3334 6.83334Z" fill="#666666"/>
<path d="M9.33335 10.1667H4.66669C4.39335 10.1667 4.16669 9.93999 4.16669 9.66666C4.16669 9.39332 4.39335 9.16666 4.66669 9.16666H9.33335C9.60669 9.16666 9.83335 9.39332 9.83335 9.66666C9.83335 9.93999 9.60669 10.1667 9.33335 10.1667Z" fill="#666666"/>
</svg>
