<svg width="16" height="16" viewBox="0 0 16 16" fill="none" xmlns="http://www.w3.org/2000/svg">
<path d="M10.6666 1.33334H5.33325C2.66659 1.33334 1.33325 2.66668 1.33325 5.33334V14C1.33325 14.3667 1.63325 14.6667 1.99992 14.6667H10.6666C13.3333 14.6667 14.6666 13.3333 14.6666 10.6667V5.33334C14.6666 2.66668 13.3333 1.33334 10.6666 1.33334ZM9.33325 10.1667H4.66659C4.39325 10.1667 4.16659 9.94001 4.16659 9.66668C4.16659 9.39334 4.39325 9.16668 4.66659 9.16668H9.33325C9.60659 9.16668 9.83325 9.39334 9.83325 9.66668C9.83325 9.94001 9.60659 10.1667 9.33325 10.1667ZM11.3333 6.83334H4.66659C4.39325 6.83334 4.16659 6.60668 4.16659 6.33334C4.16659 6.06001 4.39325 5.83334 4.66659 5.83334H11.3333C11.6066 5.83334 11.8333 6.06001 11.8333 6.33334C11.8333 6.60668 11.6066 6.83334 11.3333 6.83334Z" fill="#FF5219"/>
</svg>
