<svg width="16" height="16" viewBox="0 0 16 16" fill="none" xmlns="http://www.w3.org/2000/svg">
<path d="M12.6667 5.83334C11.2867 5.83334 10.1667 4.71334 10.1667 3.33334C10.1667 1.95334 11.2867 0.833344 12.6667 0.833344C14.0467 0.833344 15.1667 1.95334 15.1667 3.33334C15.1667 4.71334 14.0467 5.83334 12.6667 5.83334ZM12.6667 1.83334C11.84 1.83334 11.1667 2.50668 11.1667 3.33334C11.1667 4.16001 11.84 4.83334 12.6667 4.83334C13.4934 4.83334 14.1667 4.16001 14.1667 3.33334C14.1667 2.50668 13.4934 1.83334 12.6667 1.83334Z" fill="#666666"/>
<path d="M7.99998 15.1667C4.04665 15.1667 0.833313 11.9533 0.833313 8.00001C0.833313 4.04668 4.04665 0.833344 7.99998 0.833344C8.48665 0.833344 8.97331 0.88001 9.44665 0.98001C9.71998 1.03334 9.89331 1.30001 9.83331 1.57334C9.77998 1.84668 9.51331 2.02001 9.24665 1.96001C8.83998 1.87334 8.41998 1.83334 7.99998 1.83334C4.59998 1.83334 1.83331 4.60001 1.83331 8.00001C1.83331 11.4 4.59998 14.1667 7.99998 14.1667C11.4 14.1667 14.1666 11.4 14.1666 8.00001C14.1666 7.58668 14.1266 7.17334 14.0466 6.77334C13.9933 6.50001 14.1666 6.24001 14.44 6.18668C14.7133 6.12668 14.9733 6.30668 15.0266 6.58001C15.12 7.04668 15.1666 7.52668 15.1666 8.00668C15.1666 11.9533 11.9533 15.1667 7.99998 15.1667Z" fill="#666666"/>
</svg>
