<svg width="20" height="20" viewBox="0 0 20 20" fill="none" xmlns="http://www.w3.org/2000/svg">
<path d="M14.5333 12.8083C14.375 12.8083 14.2167 12.75 14.0917 12.625C13.85 12.3833 13.85 11.9833 14.0917 11.7417L15.7833 10.05L14.0917 8.35835C13.85 8.11668 13.85 7.71668 14.0917 7.47501C14.3333 7.23335 14.7333 7.23335 14.975 7.47501L17.1083 9.60835C17.35 9.85001 17.35 10.25 17.1083 10.4917L14.975 12.625C14.85 12.75 14.6917 12.8083 14.5333 12.8083Z" fill="#666666"/>
<path d="M16.6084 10.675H8.13336C7.7917 10.675 7.50836 10.3917 7.50836 10.05C7.50836 9.70832 7.7917 9.42499 8.13336 9.42499H16.6084C16.95 9.42499 17.2334 9.70832 17.2334 10.05C17.2334 10.3917 16.95 10.675 16.6084 10.675Z" fill="#666666"/>
<path d="M9.80003 17.2917C5.50836 17.2917 2.50836 14.2917 2.50836 10C2.50836 5.70834 5.50836 2.70834 9.80003 2.70834C10.1417 2.70834 10.425 2.99168 10.425 3.33334C10.425 3.67501 10.1417 3.95834 9.80003 3.95834C6.2417 3.95834 3.75836 6.44168 3.75836 10C3.75836 13.5583 6.2417 16.0417 9.80003 16.0417C10.1417 16.0417 10.425 16.325 10.425 16.6667C10.425 17.0083 10.1417 17.2917 9.80003 17.2917Z" fill="#666666"/>
</svg>
