<svg width="10" height="10" viewBox="0 0 10 10" fill="none" xmlns="http://www.w3.org/2000/svg">
<path d="M4.99996 5.3125C3.67913 5.3125 2.60413 4.2375 2.60413 2.91667C2.60413 1.59583 3.67913 0.520832 4.99996 0.520832C6.32079 0.520832 7.39579 1.59583 7.39579 2.91667C7.39579 4.2375 6.32079 5.3125 4.99996 5.3125ZM4.99996 1.14583C4.02496 1.14583 3.22913 1.94167 3.22913 2.91667C3.22913 3.89167 4.02496 4.6875 4.99996 4.6875C5.97496 4.6875 6.77079 3.89167 6.77079 2.91667C6.77079 1.94167 5.97496 1.14583 4.99996 1.14583Z" fill="white"/>
<path d="M1.4209 9.47917C1.25007 9.47917 1.1084 9.3375 1.1084 9.16667C1.1084 7.3875 2.85423 5.9375 5.00006 5.9375C5.4209 5.9375 5.83339 5.99168 6.23339 6.10418C6.40006 6.15001 6.4959 6.32084 6.45007 6.4875C6.40423 6.65417 6.2334 6.75001 6.06673 6.70418C5.72506 6.60834 5.36673 6.5625 5.00006 6.5625C3.20006 6.5625 1.7334 7.72917 1.7334 9.16667C1.7334 9.3375 1.59173 9.47917 1.4209 9.47917Z" fill="white"/>
<path d="M7.50004 9.47917C7.00837 9.47917 6.5417 9.29584 6.1792 8.96667C6.03337 8.84167 5.9042 8.6875 5.8042 8.51667C5.62087 8.21667 5.52087 7.8625 5.52087 7.5C5.52087 6.97917 5.72087 6.49167 6.07921 6.12083C6.45421 5.73333 6.95837 5.52083 7.50004 5.52083C8.06671 5.52083 8.60421 5.76251 8.97087 6.17917C9.29587 6.54167 9.47921 7.00833 9.47921 7.5C9.47921 7.65833 9.45838 7.81666 9.41671 7.96666C9.37504 8.15416 9.29587 8.35 9.18754 8.52084C8.8417 9.1125 8.19171 9.47917 7.50004 9.47917ZM7.50004 6.14583C7.12921 6.14583 6.78755 6.29166 6.52921 6.55416C6.28338 6.80832 6.14587 7.14167 6.14587 7.5C6.14587 7.74583 6.21254 7.98749 6.34171 8.19583C6.40837 8.31249 6.49587 8.41665 6.59587 8.50415C6.84587 8.73332 7.16671 8.85834 7.50004 8.85834C7.97087 8.85834 8.41671 8.60833 8.65837 8.20417C8.72921 8.0875 8.78337 7.95418 8.81254 7.82501C8.84171 7.71668 8.85421 7.6125 8.85421 7.50417C8.85421 7.17084 8.72921 6.85001 8.50421 6.60001C8.25421 6.30834 7.88754 6.14583 7.50004 6.14583Z" fill="white"/>
<path d="M8.12486 7.80416H6.87903C6.70819 7.80416 6.56653 7.66249 6.56653 7.49166C6.56653 7.32082 6.70819 7.17916 6.87903 7.17916H8.12486C8.29569 7.17916 8.43736 7.32082 8.43736 7.49166C8.43736 7.66249 8.29569 7.80416 8.12486 7.80416Z" fill="white"/>
<path d="M7.5 8.44167C7.32917 8.44167 7.1875 8.30001 7.1875 8.12917V6.88334C7.1875 6.71251 7.32917 6.57084 7.5 6.57084C7.67083 6.57084 7.8125 6.71251 7.8125 6.88334V8.12917C7.8125 8.30417 7.67083 8.44167 7.5 8.44167Z" fill="white"/>
</svg>
