<svg width="16" height="16" viewBox="0 0 16 16" fill="none" xmlns="http://www.w3.org/2000/svg">
<path d="M12.6667 15.1667C12.3934 15.1667 12.1667 14.94 12.1667 14.6667V7.33334C12.1667 7.06 12.3934 6.83334 12.6667 6.83334C12.9401 6.83334 13.1667 7.06 13.1667 7.33334V14.6667C13.1667 14.94 12.9401 15.1667 12.6667 15.1667Z" fill="#808080"/>
<path d="M12.6667 5.16667C12.3934 5.16667 12.1667 4.94 12.1667 4.66667V1.33334C12.1667 1.06 12.3934 0.833336 12.6667 0.833336C12.9401 0.833336 13.1667 1.06 13.1667 1.33334V4.66667C13.1667 4.94 12.9401 5.16667 12.6667 5.16667Z" fill="#808080"/>
<path d="M8 15.1667C7.72667 15.1667 7.5 14.94 7.5 14.6667V11.3333C7.5 11.06 7.72667 10.8333 8 10.8333C8.27333 10.8333 8.5 11.06 8.5 11.3333V14.6667C8.5 14.94 8.27333 15.1667 8 15.1667Z" fill="#808080"/>
<path d="M8 9.16667C7.72667 9.16667 7.5 8.94 7.5 8.66667V1.33334C7.5 1.06 7.72667 0.833336 8 0.833336C8.27333 0.833336 8.5 1.06 8.5 1.33334V8.66667C8.5 8.94 8.27333 9.16667 8 9.16667Z" fill="#808080"/>
<path d="M3.33325 15.1667C3.05992 15.1667 2.83325 14.94 2.83325 14.6667V7.33334C2.83325 7.06 3.05992 6.83334 3.33325 6.83334C3.60659 6.83334 3.83325 7.06 3.83325 7.33334V14.6667C3.83325 14.94 3.60659 15.1667 3.33325 15.1667Z" fill="#808080"/>
<path d="M3.33325 5.16667C3.05992 5.16667 2.83325 4.94 2.83325 4.66667V1.33334C2.83325 1.06 3.05992 0.833336 3.33325 0.833336C3.60659 0.833336 3.83325 1.06 3.83325 1.33334V4.66667C3.83325 4.94 3.60659 5.16667 3.33325 5.16667Z" fill="#808080"/>
<path d="M4.66667 7.83334H2C1.72667 7.83334 1.5 7.60667 1.5 7.33334C1.5 7.06 1.72667 6.83334 2 6.83334H4.66667C4.94 6.83334 5.16667 7.06 5.16667 7.33334C5.16667 7.60667 4.94 7.83334 4.66667 7.83334Z" fill="#808080"/>
<path d="M13.9999 7.83334H11.3333C11.0599 7.83334 10.8333 7.60667 10.8333 7.33334C10.8333 7.06 11.0599 6.83334 11.3333 6.83334H13.9999C14.2733 6.83334 14.4999 7.06 14.4999 7.33334C14.4999 7.60667 14.2733 7.83334 13.9999 7.83334Z" fill="#808080"/>
<path d="M9.33341 9.16666H6.66675C6.39341 9.16666 6.16675 8.94 6.16675 8.66666C6.16675 8.39333 6.39341 8.16666 6.66675 8.16666H9.33341C9.60675 8.16666 9.83341 8.39333 9.83341 8.66666C9.83341 8.94 9.60675 9.16666 9.33341 9.16666Z" fill="#808080"/>
</svg>
