<svg width="16" height="16" viewBox="0 0 16 16" fill="none" xmlns="http://www.w3.org/2000/svg">
<path d="M14.6666 4.83334H10.6666C10.3933 4.83334 10.1666 4.60667 10.1666 4.33334C10.1666 4.06 10.3933 3.83334 10.6666 3.83334H14.6666C14.94 3.83334 15.1666 4.06 15.1666 4.33334C15.1666 4.60667 14.94 4.83334 14.6666 4.83334Z" fill="#808080"/>
<path d="M4.00004 4.83334H1.33337C1.06004 4.83334 0.833374 4.60667 0.833374 4.33334C0.833374 4.06 1.06004 3.83334 1.33337 3.83334H4.00004C4.27337 3.83334 4.50004 4.06 4.50004 4.33334C4.50004 4.60667 4.27337 4.83334 4.00004 4.83334Z" fill="#808080"/>
<path d="M6.66671 7.16667C5.10671 7.16667 3.83337 5.89333 3.83337 4.33333C3.83337 2.77333 5.10671 1.5 6.66671 1.5C8.22671 1.5 9.50004 2.77333 9.50004 4.33333C9.50004 5.89333 8.22671 7.16667 6.66671 7.16667ZM6.66671 2.5C5.65337 2.5 4.83337 3.32 4.83337 4.33333C4.83337 5.34667 5.65337 6.16667 6.66671 6.16667C7.68004 6.16667 8.50004 5.34667 8.50004 4.33333C8.50004 3.32 7.68004 2.5 6.66671 2.5Z" fill="#808080"/>
<path d="M14.6667 12.1667H12C11.7267 12.1667 11.5 11.94 11.5 11.6667C11.5 11.3933 11.7267 11.1667 12 11.1667H14.6667C14.94 11.1667 15.1667 11.3933 15.1667 11.6667C15.1667 11.94 14.94 12.1667 14.6667 12.1667Z" fill="#808080"/>
<path d="M5.33337 12.1667H1.33337C1.06004 12.1667 0.833374 11.94 0.833374 11.6667C0.833374 11.3933 1.06004 11.1667 1.33337 11.1667H5.33337C5.60671 11.1667 5.83337 11.3933 5.83337 11.6667C5.83337 11.94 5.60671 12.1667 5.33337 12.1667Z" fill="#808080"/>
<path d="M9.33333 14.5C7.77333 14.5 6.5 13.2267 6.5 11.6667C6.5 10.1067 7.77333 8.83334 9.33333 8.83334C10.8933 8.83334 12.1667 10.1067 12.1667 11.6667C12.1667 13.2267 10.8933 14.5 9.33333 14.5ZM9.33333 9.83334C8.32 9.83334 7.5 10.6533 7.5 11.6667C7.5 12.68 8.32 13.5 9.33333 13.5C10.3467 13.5 11.1667 12.68 11.1667 11.6667C11.1667 10.6533 10.3467 9.83334 9.33333 9.83334Z" fill="#808080"/>
</svg>
